<?xml version="1.0" encoding="utf-8"?>
<!-- Generator: Adobe Illustrator 25.4.8, SVG Export Plug-In . SVG Version: 6.00 Build 0)  -->
<svg version="1.1" id="Layer_1" xmlns:serif="http://www.serif.com/"
	 xmlns="http://www.w3.org/2000/svg" xmlns:xlink="http://www.w3.org/1999/xlink" x="0px" y="0px" viewBox="0 0 1600 1400"
	 style="enable-background:new 0 0 1600 1400;" xml:space="preserve">
<path d="M100,700c0,384,316,700,700,700s700-316,700-700S1184,0,800,0S100,316,100,700z M868.4,1052.7c-25.7,25.7-67.3,25.7-92.7,0
	s-25.7-67.3,0-92.7l194.1-194.1l-497.9-0.3c-36.4,0-65.6-29.3-65.6-65.6c0-36.4,29.3-65.6,65.6-65.6h497.9L775.7,440.2
	c-25.7-25.7-25.7-67.3,0-92.7c25.7-25.4,67.3-25.7,92.7,0l306.2,306c25.7,25.7,25.7,67.3,0,92.7L868.4,1052.7z"/>
</svg>
